<?xml version="1.0" standalone="no"?>
<!DOCTYPE svg PUBLIC "-//W3C//DTD SVG 20010904//EN"
 "http://www.w3.org/TR/2001/REC-SVG-20010904/DTD/svg10.dtd">
<svg version="1.0" xmlns="http://www.w3.org/2000/svg"
 width="1024.000000pt" height="1024.000000pt" viewBox="0 0 1024.000000 1024.000000"
 preserveAspectRatio="xMidYMid meet">
<metadata>
Created by potrace 1.14, written by Peter Selinger 2001-2017
</metadata>
<g transform="translate(0.000000,1024.000000) scale(0.100000,-0.100000)"
fill="#000000" stroke="none">
<path d="M0 5120 l0 -5120 5120 0 5120 0 0 5120 0 5120 -5120 0 -5120 0 0
-5120z m7596 2165 c491 -65 907 -281 1274 -662 306 -316 497 -686 570 -1103
28 -158 38 -477 21 -630 -29 -251 -90 -476 -187 -680 -68 -142 -124 -233 -230
-375 -424 -565 -1047 -885 -1724 -885 -590 0 -1056 180 -1496 577 l-81 73
-623 0 -622 0 -96 -87 c-430 -385 -900 -563 -1482 -563 -651 0 -1244 291
-1680 825 -148 182 -293 443 -364 657 -41 124 -80 306 -97 458 -17 153 -7 472
21 630 73 418 264 787 570 1104 365 378 780 594 1266 660 81 11 543 14 2471
15 2079 1 2386 -1 2489 -14z"/>
<path d="M2692 6305 c-22 -10 -39 -28 -52 -57 -18 -40 -20 -68 -20 -420 l0
-378 -380 0 c-439 0 -438 0 -471 -75 -19 -42 -20 -63 -17 -263 5 -328 -31
-306 485 -310 l382 -3 3 -388 c3 -429 2 -421 71 -458 28 -16 60 -18 252 -18
246 0 268 5 302 68 16 29 18 71 21 414 l3 382 382 3 c515 4 480 -18 485 310 3
197 2 221 -16 261 -34 77 -34 77 -471 77 l-380 0 -3 388 c-3 431 -4 433 -72
466 -47 22 -453 23 -504 1z"/>
<path d="M7795 6301 c-99 -29 -156 -62 -226 -131 -108 -106 -159 -231 -159
-390 1 -270 149 -466 397 -525 95 -23 242 -16 328 14 150 54 273 178 326 331
33 93 33 267 0 360 -60 173 -216 313 -389 349 -78 16 -208 12 -277 -8z"/>
<path d="M7003 5008 c-210 -21 -398 -184 -448 -389 -23 -94 -16 -258 14 -344
63 -177 202 -293 396 -330 96 -19 141 -19 230 0 319 67 504 408 392 718 -88
243 -308 373 -584 345z"/>
</g>
</svg>
